<svg width="25" height="25" viewBox="0 0 25 25" fill="none" xmlns="http://www.w3.org/2000/svg">
<path d="M2.55636 16.7297C2.84937 17.0226 3.24672 17.1872 3.66104 17.1872C4.07536 17.1872 4.47272 17.0226 4.76573 16.7297L12.5001 8.9953L20.2345 16.7297C20.5292 17.0143 20.9239 17.1718 21.3335 17.1682C21.7432 17.1647 22.1351 17.0003 22.4248 16.7106C22.7145 16.4209 22.8788 16.029 22.8824 15.6194C22.886 15.2097 22.7285 14.815 22.4439 14.5203L13.6048 5.68123C13.3118 5.38831 12.9144 5.22375 12.5001 5.22375C12.0858 5.22375 11.6884 5.38831 11.3954 5.68123L2.55636 14.5203C2.26343 14.8133 2.09888 15.2107 2.09888 15.625C2.09888 16.0393 2.26343 16.4367 2.55636 16.7297Z" fill="#231F40"/>
</svg>
