<svg width="25" height="25" viewBox="0 0 25 25" fill="none" xmlns="http://www.w3.org/2000/svg">
<path d="M8.2703 2.55623C7.97737 2.84925 7.81282 3.2466 7.81282 3.66092C7.81282 4.07524 7.97737 4.4726 8.2703 4.76561L16.0047 12.5L8.2703 20.2344C7.98568 20.529 7.82818 20.9237 7.83174 21.3334C7.8353 21.7431 7.99963 22.135 8.28933 22.4247C8.57903 22.7144 8.97093 22.8787 9.38061 22.8823C9.79029 22.8858 10.185 22.7284 10.4797 22.4437L19.3187 13.6047C19.6117 13.3117 19.7762 12.9143 19.7762 12.5C19.7762 12.0857 19.6117 11.6883 19.3187 11.3953L10.4797 2.55623C10.1867 2.26331 9.7893 2.09875 9.37499 2.09875C8.96067 2.09875 8.56331 2.26331 8.2703 2.55623Z" fill="#231F40"/>
</svg>
