<svg width="294" height="54" viewBox="0 0 294 54" fill="none" xmlns="http://www.w3.org/2000/svg">
<path d="M27 42.1842L42.45 52L38.35 33.5L52 21.0526L34.025 19.4474L27 2L19.975 19.4474L2 21.0526L15.65 33.5L11.55 52L27 42.1842Z" fill="#FFC107"/>
<path d="M87 42.1842L102.45 52L98.35 33.5L112 21.0526L94.025 19.4474L87 2L79.975 19.4474L62 21.0526L75.65 33.5L71.55 52L87 42.1842Z" fill="#FFC107"/>
<path d="M147 42.1842L162.45 52L158.35 33.5L172 21.0526L154.025 19.4474L147 2L139.975 19.4474L122 21.0526L135.65 33.5L131.55 52L147 42.1842Z" fill="#FFC107"/>
<path d="M207 42.1842L222.45 52L218.35 33.5L232 21.0526L214.025 19.4474L207 2L199.975 19.4474L182 21.0526L195.65 33.5L191.55 52L207 42.1842Z" fill="#FFC107"/>
<path d="M267 42.1842L282.45 52L278.35 33.5L292 21.0526L274.025 19.4474L267 2L259.975 19.4474L242 21.0526L255.65 33.5L251.55 52L267 42.1842Z" fill="#FFC107"/>
</svg>
