<svg width="25" height="24" viewBox="0 0 25 24" fill="none" xmlns="http://www.w3.org/2000/svg">
<path d="M16.6422 17V19H2.08026V17C2.08026 17 2.08026 13 9.36124 13C16.6422 13 16.6422 17 16.6422 17ZM13.0017 7.49999C13.0017 6.80776 12.7882 6.13107 12.3882 5.5555C11.9882 4.97992 11.4196 4.53132 10.7544 4.26641C10.0892 4.00151 9.3572 3.93219 8.65101 4.06724C7.94483 4.20229 7.29616 4.53563 6.78702 5.02512C6.27789 5.5146 5.93117 6.13824 5.7907 6.81718C5.65023 7.49611 5.72233 8.19984 5.99787 8.83938C6.27341 9.47892 6.74002 10.0256 7.33869 10.4101C7.93737 10.7947 8.64122 11 9.36124 11C10.3268 11 11.2527 10.6312 11.9355 9.97486C12.6182 9.31849 13.0017 8.42825 13.0017 7.49999ZM16.5798 13C17.2192 13.4757 17.7424 14.0804 18.1126 14.7715C18.4828 15.4626 18.691 16.2232 18.7225 17V19H22.8831V17C22.8831 17 22.8831 13.37 16.5798 13ZM15.6021 3.99999C14.8861 3.99616 14.1859 4.20195 13.5946 4.58999C14.2264 5.43873 14.5662 6.45628 14.5662 7.49999C14.5662 8.54371 14.2264 9.56125 13.5946 10.41C14.1859 10.798 14.8861 11.0038 15.6021 11C16.5676 11 17.4936 10.6312 18.1763 9.97486C18.859 9.31849 19.2426 8.42825 19.2426 7.49999C19.2426 6.57173 18.859 5.6815 18.1763 5.02512C17.4936 4.36874 16.5676 3.99999 15.6021 3.99999Z" fill="black"/>
</svg>
