<svg width="25" height="25" viewBox="0 0 25 25" fill="none" xmlns="http://www.w3.org/2000/svg">
<path d="M24.2188 12.5C24.2196 11.6028 23.9997 10.7192 23.5784 9.92705C23.1571 9.13492 22.5474 8.4586 21.803 7.95772C21.0586 7.45685 20.2025 7.14681 19.31 7.05494C18.4175 6.96306 17.5162 7.09218 16.6854 7.43091C15.8546 7.76963 15.1199 8.30755 14.546 8.99725C13.9722 9.68695 13.5769 10.5072 13.3949 11.3858C13.2129 12.2643 13.2499 13.1742 13.5026 14.035C13.7553 14.8959 14.2158 15.6814 14.8438 16.3223V21.875C14.8437 22.0082 14.8776 22.1393 14.9425 22.2557C15.0073 22.3721 15.1008 22.47 15.2141 22.54C15.3275 22.6101 15.4568 22.65 15.5899 22.656C15.723 22.662 15.8555 22.6338 15.9746 22.5742L18.75 21.1855L21.5254 22.5742C21.6445 22.6338 21.777 22.662 21.9101 22.656C22.0432 22.65 22.1725 22.6101 22.2859 22.54C22.3992 22.47 22.4927 22.3721 22.5575 22.2557C22.6224 22.1393 22.6563 22.0082 22.6562 21.875V16.3223C23.6583 15.3024 24.2194 13.9297 24.2188 12.5ZM18.75 8.59375C19.5226 8.59375 20.2778 8.82285 20.9202 9.25207C21.5626 9.6813 22.0632 10.2914 22.3589 11.0051C22.6546 11.7189 22.7319 12.5043 22.5812 13.2621C22.4305 14.0198 22.0584 14.7158 21.5121 15.2621C20.9658 15.8084 20.2698 16.1805 19.5121 16.3312C18.7543 16.4819 17.9689 16.4046 17.2551 16.1089C16.5414 15.8132 15.9313 15.3126 15.5021 14.6702C15.0728 14.0278 14.8438 13.2726 14.8438 12.5C14.8438 11.464 15.2553 10.4704 15.9879 9.73786C16.7204 9.0053 17.714 8.59375 18.75 8.59375ZM19.0996 19.6133C18.9911 19.559 18.8714 19.5307 18.75 19.5307C18.6286 19.5307 18.5089 19.559 18.4004 19.6133L16.4062 20.6113V17.4404C17.1386 17.7883 17.9392 17.9687 18.75 17.9687C19.5608 17.9687 20.3614 17.7883 21.0938 17.4404V20.6113L19.0996 19.6133ZM13.2812 18.75C13.2812 18.9572 13.1989 19.1559 13.0524 19.3024C12.9059 19.4489 12.7072 19.5312 12.5 19.5312H3.90625C3.49185 19.5312 3.09442 19.3666 2.8014 19.0736C2.50837 18.7806 2.34375 18.3832 2.34375 17.9688V5.46875C2.34375 5.05435 2.50837 4.65692 2.8014 4.3639C3.09442 4.07087 3.49185 3.90625 3.90625 3.90625H21.0938C21.5082 3.90625 21.9056 4.07087 22.1986 4.3639C22.4916 4.65692 22.6562 5.05435 22.6562 5.46875C22.6562 5.67595 22.5739 5.87466 22.4274 6.02118C22.2809 6.16769 22.0822 6.25 21.875 6.25C21.6678 6.25 21.4691 6.16769 21.3226 6.02118C21.1761 5.87466 21.0938 5.67595 21.0938 5.46875H3.90625V17.9688H12.5C12.7072 17.9688 12.9059 18.0511 13.0524 18.1976C13.1989 18.3441 13.2812 18.5428 13.2812 18.75ZM11.7188 13.2812C11.7188 13.4885 11.6364 13.6872 11.4899 13.8337C11.3434 13.9802 11.1447 14.0625 10.9375 14.0625H7.03125C6.82405 14.0625 6.62534 13.9802 6.47882 13.8337C6.33231 13.6872 6.25 13.4885 6.25 13.2812C6.25 13.074 6.33231 12.8753 6.47882 12.7288C6.62534 12.5823 6.82405 12.5 7.03125 12.5H10.9375C11.1447 12.5 11.3434 12.5823 11.4899 12.7288C11.6364 12.8753 11.7188 13.074 11.7188 13.2812ZM11.7188 10.1562C11.7188 10.3635 11.6364 10.5622 11.4899 10.7087C11.3434 10.8552 11.1447 10.9375 10.9375 10.9375H7.03125C6.82405 10.9375 6.62534 10.8552 6.47882 10.7087C6.33231 10.5622 6.25 10.3635 6.25 10.1562C6.25 9.94905 6.33231 9.75034 6.47882 9.60382C6.62534 9.45731 6.82405 9.375 7.03125 9.375H10.9375C11.1447 9.375 11.3434 9.45731 11.4899 9.60382C11.6364 9.75034 11.7188 9.94905 11.7188 10.1562Z" fill="#F86F04"/>
</svg>
