<svg width="25" height="25" viewBox="0 0 25 25" fill="none" xmlns="http://www.w3.org/2000/svg">
<path d="M20.3125 7.8125H17.1875V5.46875C17.1875 4.22555 16.6936 3.03326 15.8146 2.15419C14.9355 1.27511 13.7432 0.78125 12.5 0.78125C11.2568 0.78125 10.0645 1.27511 9.18544 2.15419C8.30636 3.03326 7.8125 4.22555 7.8125 5.46875V7.8125H4.6875C4.2731 7.8125 3.87567 7.97712 3.58265 8.27015C3.28962 8.56317 3.125 8.9606 3.125 9.375V20.3125C3.125 20.7269 3.28962 21.1243 3.58265 21.4174C3.87567 21.7104 4.2731 21.875 4.6875 21.875H20.3125C20.7269 21.875 21.1243 21.7104 21.4174 21.4174C21.7104 21.1243 21.875 20.7269 21.875 20.3125V9.375C21.875 8.9606 21.7104 8.56317 21.4174 8.27015C21.1243 7.97712 20.7269 7.8125 20.3125 7.8125ZM9.375 5.46875C9.375 4.63995 9.70424 3.84509 10.2903 3.25904C10.8763 2.67299 11.6712 2.34375 12.5 2.34375C13.3288 2.34375 14.1237 2.67299 14.7097 3.25904C15.2958 3.84509 15.625 4.63995 15.625 5.46875V7.8125H9.375V5.46875ZM20.3125 20.3125H4.6875V9.375H20.3125V20.3125ZM13.6719 14.8438C13.6719 15.0755 13.6031 15.3021 13.4744 15.4948C13.3456 15.6875 13.1626 15.8377 12.9485 15.9264C12.7343 16.0151 12.4987 16.0383 12.2714 15.9931C12.0441 15.9479 11.8352 15.8363 11.6714 15.6724C11.5075 15.5085 11.3959 15.2997 11.3506 15.0724C11.3054 14.845 11.3286 14.6094 11.4173 14.3953C11.506 14.1812 11.6562 13.9981 11.8489 13.8694C12.0417 13.7406 12.2682 13.6719 12.5 13.6719C12.8108 13.6719 13.1089 13.7953 13.3286 14.0151C13.5484 14.2349 13.6719 14.5329 13.6719 14.8438Z" fill="#3F3F3F"/>
</svg>
