<svg width="25" height="25" viewBox="0 0 25 25" fill="none" xmlns="http://www.w3.org/2000/svg">
<path fill-rule="evenodd" clip-rule="evenodd" d="M12.5521 1.302H12.448C11.7563 1.302 11.1594 1.302 10.6813 1.36659C10.1698 1.43534 9.67817 1.59054 9.28025 1.98846C8.88233 2.38638 8.72712 2.87804 8.65837 3.3895C8.59379 3.86763 8.59379 4.4645 8.59379 5.15721V7.68534C8.34285 7.59678 8.07865 7.55169 7.81254 7.552H4.68754C4.37976 7.552 4.07498 7.61263 3.79063 7.73041C3.50627 7.84819 3.2479 8.02083 3.03026 8.23847C2.81262 8.45611 2.63998 8.71448 2.5222 8.99884C2.40441 9.2832 2.34379 9.58797 2.34379 9.89575V22.1353H2.08337C1.87617 22.1353 1.67746 22.2176 1.53095 22.3642C1.38443 22.5107 1.30212 22.7094 1.30212 22.9166C1.30212 23.1238 1.38443 23.3225 1.53095 23.469C1.67746 23.6155 1.87617 23.6978 2.08337 23.6978H22.9167C23.1239 23.6978 23.3226 23.6155 23.4691 23.469C23.6157 23.3225 23.698 23.1238 23.698 22.9166C23.698 22.7094 23.6157 22.5107 23.4691 22.3642C23.3226 22.2176 23.1239 22.1353 22.9167 22.1353H22.6563V15.1041C22.6563 14.4825 22.4094 13.8863 21.9698 13.4468C21.5303 13.0073 20.9341 12.7603 20.3125 12.7603H17.1875C16.9136 12.7603 16.6511 12.8072 16.4063 12.8937V5.15721C16.4063 4.4645 16.4063 3.86763 16.3417 3.3895C16.273 2.87804 16.1178 2.38638 15.7198 1.98846C15.3219 1.59054 14.8313 1.43534 14.3188 1.36659C13.8407 1.302 13.2438 1.302 12.5511 1.302H12.5521ZM21.0938 22.1353V15.1041C21.0938 14.8969 21.0115 14.6982 20.865 14.5517C20.7185 14.4051 20.5197 14.3228 20.3125 14.3228H17.1875C16.9803 14.3228 16.7816 14.4051 16.6351 14.5517C16.4886 14.6982 16.4063 14.8969 16.4063 15.1041V22.1353H21.0938ZM14.8438 22.1353V5.20825C14.8438 4.44992 14.8417 3.95825 14.7938 3.59784C14.748 3.25929 14.674 3.15304 14.6146 3.09367C14.5553 3.03429 14.449 2.96034 14.1105 2.9145C13.749 2.86659 13.2584 2.8645 12.5 2.8645C11.7417 2.8645 11.25 2.86659 10.8896 2.9145C10.5511 2.96034 10.4448 3.03429 10.3855 3.09367C10.3261 3.15304 10.2521 3.25929 10.2063 3.59784C10.1584 3.95929 10.1563 4.44992 10.1563 5.20825V22.1353H14.8438ZM8.59379 22.1353V9.89575C8.59379 9.68855 8.51148 9.48984 8.36497 9.34333C8.21846 9.19681 8.01974 9.1145 7.81254 9.1145H4.68754C4.48034 9.1145 4.28163 9.19681 4.13511 9.34333C3.9886 9.48984 3.90629 9.68855 3.90629 9.89575V22.1353H8.59379Z" fill="#F86F04"/>
</svg>
