<svg width="25" height="25" viewBox="0 0 25 25" fill="none" xmlns="http://www.w3.org/2000/svg">
<path d="M12.5 21.8751C13.7311 21.8751 14.9502 21.6326 16.0876 21.1615C17.225 20.6903 18.2585 19.9998 19.1291 19.1292C19.9996 18.2587 20.6902 17.2252 21.1613 16.0877C21.6325 14.9503 21.875 13.7312 21.875 12.5001C21.875 11.2689 21.6325 10.0499 21.1613 8.91242C20.6902 7.775 19.9996 6.7415 19.1291 5.87095C18.2585 5.00041 17.225 4.30985 16.0876 3.83871C14.9502 3.36757 13.7311 3.12508 12.5 3.12508C10.0136 3.12508 7.62899 4.1128 5.87083 5.87095C4.11268 7.62911 3.12496 10.0137 3.12496 12.5001C3.12496 14.9865 4.11268 17.3711 5.87083 19.1292C7.62899 20.8874 10.0136 21.8751 12.5 21.8751ZM23.9583 12.5001C23.9583 18.8282 18.8281 23.9584 12.5 23.9584C6.17183 23.9584 1.04163 18.8282 1.04163 12.5001C1.04163 6.17196 6.17183 1.04175 12.5 1.04175C18.8281 1.04175 23.9583 6.17196 23.9583 12.5001ZM15.625 17.098L11.4583 12.9313V5.72925H13.5416V12.0688L17.0979 15.6251L15.625 17.098Z" fill="#F86F04"/>
</svg>
