<svg width="51" height="51" viewBox="0 0 51 51" fill="none" xmlns="http://www.w3.org/2000/svg">
<path d="M25.4999 0.0833282C20.473 0.0833282 15.5589 1.57399 11.3792 4.36681C7.19944 7.15963 3.94172 11.1292 2.01799 15.7735C0.0942646 20.4177 -0.40907 25.5282 0.571638 30.4585C1.55235 35.3889 3.97305 39.9177 7.52763 43.4723C11.0822 47.0269 15.611 49.4476 20.5414 50.4283C25.4717 51.409 30.5822 50.9057 35.2265 48.9819C39.8708 47.0582 43.8403 43.8005 46.6331 39.6207C49.4259 35.441 50.9166 30.5269 50.9166 25.5C50.9166 22.1622 50.2592 18.8571 48.9819 15.7735C47.7046 12.6898 45.8324 9.88785 43.4722 7.5277C41.1121 5.16754 38.3102 3.29536 35.2265 2.01806C32.1428 0.74075 28.8377 0.0833282 25.4999 0.0833282ZM20.4166 36.9375V14.0625L35.6666 25.5L20.4166 36.9375Z" fill="white"/>
</svg>
